<?xml version="1.0" encoding="UTF-8"?> <svg xmlns="http://www.w3.org/2000/svg" width="141" height="25" viewBox="0 0 141 25" fill="none"><g clip-path="url(#clip0_1628_33687)"><path d="M0.292664 24.3166V0.225586H11.1265C15.7436 0.225586 18.1181 3.15314 18.1181 6.35873C18.1181 9.35171 16.2218 11.4124 13.9297 11.8867C16.5516 12.2793 18.5963 14.7816 18.5963 17.7746C18.5963 21.4217 16.1888 24.3166 11.5387 24.3166H0.292664ZM12.8414 7.27461C12.8414 5.7863 11.7531 4.73958 10.0051 4.73958H5.47046V9.79329H10.0051C11.7531 9.79329 12.8414 8.82834 12.8414 7.27461ZM13.3196 17.0549C13.3196 15.5339 12.2313 14.3073 10.2195 14.3073H5.47046V19.8026H10.236C12.1488 19.8026 13.3196 18.7886 13.3196 17.0549Z" fill="white"></path><path d="M20.0144 17.333V6.86572H24.6645V17.1858C24.6645 19.2629 25.9342 20.7675 28.4077 20.7675C30.8482 20.7675 32.1344 19.2629 32.1344 17.1858V6.86572H36.768V17.3166C36.768 21.6998 34.1132 24.7745 28.4242 24.7745C22.7352 24.7745 20.0144 21.667 20.0144 17.333Z" fill="white"></path><path d="M38.3016 24.3166V20.882L46.2332 10.8727H38.3016V6.86572H52.5323V10.1531L44.4523 20.3096H52.6807V24.3166H38.3016Z" fill="white"></path><path d="M54.1978 24.3166V20.882L62.1293 10.8727H54.1978V6.86572H68.4284V10.1531L60.3484 20.3096H68.5769V24.3166H54.1978Z" fill="white"></path><path d="M70.3083 24.3166V0.225586H87.1608V4.73958H75.4861V9.79329H84.2751V14.3073H75.4861V24.3166H70.3083Z" fill="white"></path><path d="M85.5778 15.5829C85.5778 10.5292 89.3705 6.44043 94.6802 6.44043C99.9569 6.44043 103.486 10.3493 103.486 16.0081V17.0876H90.4093C90.7391 19.2137 92.487 20.9964 95.4717 20.9964C96.9723 20.9964 99.0005 20.3749 100.138 19.2955L102.216 22.3375C100.468 23.924 97.6978 24.7581 94.977 24.7581C89.6178 24.7581 85.5778 21.1763 85.5778 15.5829ZM94.6802 10.2021C91.811 10.2021 90.5577 12.1811 90.3763 13.9147H99.05C98.9016 12.2465 97.7308 10.2021 94.6802 10.2021Z" fill="white"></path><path d="M104.739 15.5829C104.739 10.5292 108.532 6.44043 113.841 6.44043C119.118 6.44043 122.647 10.3493 122.647 16.0081V17.0876H109.57C109.9 19.2137 111.648 20.9964 114.633 20.9964C116.133 20.9964 118.162 20.3749 119.299 19.2955L121.377 22.3375C119.629 23.924 116.859 24.7581 114.138 24.7581C108.779 24.7581 104.739 21.1763 104.739 15.5829ZM113.841 10.2021C110.972 10.2021 109.719 12.1811 109.537 13.9147H118.211C118.063 12.2465 116.892 10.2021 113.841 10.2021Z" fill="white"></path><path d="M124.345 24.3493V6.83301H131.436C136.993 6.83301 141 10.1367 141 15.583C141 21.0128 137.009 24.3493 131.469 24.3493H124.345ZM136.498 15.583C136.498 12.868 134.849 10.611 131.617 10.611H128.748V20.5713H131.617C134.701 20.5713 136.498 18.1834 136.498 15.583Z" fill="white"></path></g><defs><clipPath id="clip0_1628_33687"><rect width="140.707" height="24.5489" fill="white" transform="translate(0.292664 0.225586)"></rect></clipPath></defs></svg> 